<?xml version="1.0" encoding="iso-8859-1"?>
<!-- Generator: Adobe Illustrator 19.0.0, SVG Export Plug-In . SVG Version: 6.00 Build 0)  -->
<svg version="1.1" id="Layer_1" xmlns="http://www.w3.org/2000/svg" xmlns:xlink="http://www.w3.org/1999/xlink" x="0px" y="0px"
	 viewBox="0 0 472.615 472.615" style="enable-background:new 0 0 472.615 472.615;" xml:space="preserve">
<g>
	<g>
		<path d="M0,0v78.74h472.615V0H0z M285.538,49.201H49.231V29.509h236.308V49.201z M354.462,49.201h-19.692V29.509h19.692V49.201z
			 M393.846,49.201h-19.692V29.509h19.692V49.201z M433.231,49.201h-19.692V29.509h19.692V49.201z"/>
	</g>
</g>
<g>
	<g>
		<path d="M0,98.432v374.183h472.615V98.432H0z M327.19,182.124c-5.609,4.961-11.552,9.395-17.785,13.327
			c-5.6-14.5-12.571-27.086-20.563-37.413C302.763,163.785,315.66,171.928,327.19,182.124z M246.154,149.309
			c18.464,5.565,34.778,26.348,45.565,55.62c-14.291,6.295-29.645,10.056-45.565,11.172V149.309z M246.154,235.792
			c17.936-1.1,35.301-5.022,51.473-11.865c4.085,15.853,6.658,33.345,7.346,51.736h-58.819V235.792z M246.154,295.355h58.819
			c-0.688,18.392-3.261,35.885-7.346,51.738c-16.173-6.844-33.539-10.768-51.473-11.868V295.355z M183.773,158.038
			c-7.993,10.329-14.964,22.913-20.564,37.413c-6.233-3.933-12.177-8.365-17.785-13.326
			C156.951,171.931,169.85,163.787,183.773,158.038z M131.614,196.139c7.891,7.075,16.357,13.266,25.326,18.536
			c-5.118,18.456-8.246,39.033-8.978,60.987H98.937C101.015,246.184,112.369,218.555,131.614,196.139z M98.937,295.355h49.026
			c0.732,21.954,3.861,42.533,8.979,60.99c-8.969,5.269-17.438,11.459-25.329,18.536C112.373,352.485,101.015,324.85,98.937,295.355
			z M145.426,388.894c5.609-4.96,11.552-9.392,17.786-13.325c5.599,14.499,12.57,27.084,20.562,37.41
			C169.853,407.232,156.956,399.09,145.426,388.894z M226.462,421.708c-18.464-5.565-34.777-26.346-45.563-55.616
			c14.294-6.295,29.647-10.058,45.563-11.174V421.708z M226.462,335.225c-17.933,1.1-35.297,5.026-51.471,11.872
			c-4.086-15.855-6.66-33.349-7.348-51.742h58.819V335.225z M226.462,275.663h-58.819c0.688-18.393,3.261-35.886,7.346-51.739
			c16.173,6.844,33.539,10.768,51.473,11.868V275.663z M226.462,216.099c-15.917-1.117-31.273-4.877-45.564-11.17
			c10.786-29.272,27.1-50.055,45.564-55.62V216.099z M246.154,421.708v-66.79c15.917,1.117,31.272,4.877,45.564,11.17
			C280.931,395.359,264.618,416.143,246.154,421.708z M288.838,412.984c7.994-10.329,14.967-22.916,20.568-37.418
			c6.233,3.934,12.178,8.365,17.786,13.328C315.665,399.09,302.766,407.236,288.838,412.984z M341.003,374.879
			c-7.892-7.076-16.359-13.267-25.328-18.538c5.118-18.455,8.246-39.032,8.978-60.985h49.026
			C371.601,324.84,360.248,352.469,341.003,374.879z M324.652,275.663c-0.732-21.952-3.86-42.529-8.978-60.984
			c8.97-5.272,17.438-11.461,25.329-18.539c19.238,22.4,30.596,50.035,32.674,79.523H324.652z"/>
	</g>
</g>
<g>
</g>
<g>
</g>
<g>
</g>
<g>
</g>
<g>
</g>
<g>
</g>
<g>
</g>
<g>
</g>
<g>
</g>
<g>
</g>
<g>
</g>
<g>
</g>
<g>
</g>
<g>
</g>
<g>
</g>
</svg>
